<?xml version="1.0" standalone="no"?>
<!DOCTYPE svg PUBLIC "-//W3C//DTD SVG 20010904//EN"
 "http://www.w3.org/TR/2001/REC-SVG-20010904/DTD/svg10.dtd">
<svg version="1.0" xmlns="http://www.w3.org/2000/svg"
 width="828.000000pt" height="828.000000pt" viewBox="0 0 828.000000 828.000000"
 preserveAspectRatio="xMidYMid meet">
<metadata>
Created by potrace 1.14, written by Peter Selinger 2001-2017
</metadata>
<g transform="translate(0.000000,828.000000) scale(0.100000,-0.100000)"
fill="#000000" stroke="none">
<path d="M1383 7733 c-72 -21 -155 -98 -188 -176 l-25 -58 3 -3357 2 -3357 23
-50 c25 -55 81 -118 127 -143 79 -43 -20 -42 2807 -42 l2697 0 56 21 c30 11
68 31 84 45 16 13 33 24 37 24 11 1 71 124 78 160 3 14 6 1316 6 2893 0 2495
-2 2871 -14 2895 -8 15 -34 47 -57 72 -66 71 -106 116 -234 260 -66 74 -125
140 -131 145 -6 6 -94 102 -195 215 -101 113 -200 223 -220 245 -20 22 -62 69
-94 105 -73 81 -94 100 -123 111 -14 5 -985 9 -2305 8 -2023 -1 -2288 -2
-2334 -16z"/>
</g>
</svg>
